<svg fill="#000000" xmlns="http://www.w3.org/2000/svg"  viewBox="0 0 50 50" width="50px" height="50px"><path fill="#777777" d="M 17 5 C 15.683594 5 14.894531 6.273438 14.125 7.5 C 13.816406 7.992188 13.234375 8.90625 13 9 L 3 9 C 1.347656 9 0 10.347656 0 12 L 0 39 C 0 40.652344 1.347656 42 3 42 L 47 42 C 48.652344 42 50 40.652344 50 39 L 50 12 C 50 10.347656 48.652344 9 47 9 L 37.03125 9 C 36.753906 8.898438 36.183594 7.992188 35.875 7.5 C 35.105469 6.273438 34.316406 5 33 5 Z M 25 11 C 32.167969 11 38 16.832031 38 24 C 38 31.167969 32.167969 37 25 37 C 17.832031 37 12 31.167969 12 24 C 12 16.832031 17.832031 11 25 11 Z M 25 13 C 18.933594 13 14 17.933594 14 24 C 14 30.066406 18.933594 35 25 35 C 31.066406 35 36 30.066406 36 24 C 36 17.933594 31.066406 13 25 13 Z M 8 14 L 9 14 C 10.105469 14 11 14.894531 11 16 C 11 17.105469 10.105469 18 9 18 L 8 18 C 6.894531 18 6 17.105469 6 16 C 6 14.894531 6.894531 14 8 14 Z M 25 15 C 29.964844 15 34 19.039063 34 24 C 34 28.964844 29.964844 33 25 33 C 20.039063 33 16 28.964844 16 24 C 16 19.039063 20.039063 15 25 15 Z M 25 17 C 21.140625 17 18 20.140625 18 24 C 18 27.859375 21.140625 31 25 31 C 28.859375 31 32 27.859375 32 24 C 32 20.140625 28.859375 17 25 17 Z"/></svg>