<svg fill="#000000" xmlns="http://www.w3.org/2000/svg"  viewBox="0 0 26 26" width="52px" height="52px"><path fill="#777777" d="M 4 3 C 3.449219 3 3 3.449219 3 4 L 3 5 C 1.34375 5 0 6.34375 0 8 L 0 18 C 0 19.65625 1.34375 21 3 21 L 23 21 C 24.65625 21 26 19.65625 26 18 L 26 8 C 26 6.34375 24.65625 5 23 5 L 7 5 L 7 4 C 7 3.449219 6.550781 3 6 3 Z M 17 6.9375 C 20.34375 6.9375 23.0625 9.652344 23.0625 13 C 23.0625 16.347656 20.34375 19.0625 17 19.0625 C 13.65625 19.0625 10.9375 16.347656 10.9375 13 C 10.9375 9.652344 13.65625 6.9375 17 6.9375 Z M 3 7 L 7 7 L 7 9 L 3 9 Z M 17 9.1875 C 14.894531 9.1875 13.1875 10.894531 13.1875 13 C 13.1875 15.105469 14.894531 16.8125 17 16.8125 C 19.105469 16.8125 20.8125 15.105469 20.8125 13 C 20.8125 10.894531 19.105469 9.1875 17 9.1875 Z"/></svg>