<svg fill="#000000" xmlns="http://www.w3.org/2000/svg"  viewBox="0 0 50 50" width="50px" height="50px"><path fill="#777777" d="M 7 4 C 5.3 4 4 5.3 4 7 L 4 43 C 4 44.7 5.3 46 7 46 L 42 46 C 43.7 46 45 44.7 45 43 L 45 7 C 45 5.3 43.7 4 42 4 L 7 4 z M 7 6 L 41.599609 6 L 6 42.599609 L 6 7 C 6 6.4 6.4 6 7 6 z M 15.984375 8.9863281 A 1.0001 1.0001 0 0 0 15 10 L 15 15 L 10 15 A 1.0001 1.0001 0 1 0 10 17 L 15 17 L 15 22 A 1.0001 1.0001 0 1 0 17 22 L 17 17 L 22 17 A 1.0001 1.0001 0 1 0 22 15 L 17 15 L 17 10 A 1.0001 1.0001 0 0 0 15.984375 8.9863281 z M 28 33 L 40 33 C 40.6 33 41 33.4 41 34 C 41 34.6 40.6 35 40 35 L 28 35 C 27.4 35 27 34.6 27 34 C 27 33.4 27.4 33 28 33 z"/></svg>