<svg fill="#000000" xmlns="http://www.w3.org/2000/svg"  viewBox="0 0 50 50" width="50px" height="50px"><path fill="#777777" d="M 18.707031 46.742188 C 18.550781 46.742188 18.390625 46.707031 18.242188 46.628906 C 17.816406 46.402344 17.613281 45.910156 17.753906 45.453125 L 22.773438 29 L 12.277344 29 C 11.890625 29 11.542969 28.777344 11.375 28.433594 C 11.210938 28.085938 11.257813 27.675781 11.496094 27.375 L 30.546875 3.628906 C 30.847656 3.257813 31.363281 3.148438 31.785156 3.367188 C 32.210938 3.585938 32.417969 4.070313 32.289063 4.527344 L 27.605469 21 L 37.710938 21 C 38.09375 21 38.445313 21.21875 38.609375 21.566406 C 38.777344 21.914063 38.730469 22.324219 38.492188 22.625 L 19.488281 46.367188 C 19.292969 46.613281 19.003906 46.742188 18.707031 46.742188 Z"/></svg>