<svg fill="#000000" xmlns="http://www.w3.org/2000/svg"  viewBox="0 0 50 50" width="50px" height="50px"><path fill="#777777" d="M 26.46875 3.25 C 26.128906 3.207031 25.785156 3.347656 25.5625 3.625 L 6.5 27.375 C 6.257813 27.675781 6.210938 28.089844 6.375 28.4375 C 6.542969 28.785156 6.894531 29 7.28125 29 L 17.78125 29 L 12.75 45.4375 C 12.609375 45.898438 12.824219 46.398438 13.25 46.625 C 13.398438 46.703125 13.5625 46.75 13.71875 46.75 C 14.015625 46.75 14.304688 46.617188 14.5 46.375 L 33.5 22.625 C 33.738281 22.324219 33.789063 21.910156 33.625 21.5625 C 33.457031 21.214844 33.105469 21 32.71875 21 L 22.59375 21 L 27.28125 4.53125 C 27.410156 4.074219 27.203125 3.59375 26.78125 3.375 C 26.675781 3.320313 26.582031 3.265625 26.46875 3.25 Z M 40.3125 4 C 39.9375 4.070313 39.632813 4.347656 39.53125 4.71875 L 36.03125 16.71875 C 35.875 17.253906 36.183594 17.8125 36.71875 17.96875 C 37.253906 18.125 37.8125 17.816406 37.96875 17.28125 L 38.625 15 L 43.375 15 L 44.03125 17.28125 C 44.1875 17.816406 44.746094 18.125 45.28125 17.96875 C 45.816406 17.8125 46.125 17.253906 45.96875 16.71875 L 42.46875 4.71875 C 42.34375 4.289063 41.949219 3.996094 41.5 4 L 40.5 4 C 40.46875 4 40.4375 4 40.40625 4 C 40.375 4 40.34375 4 40.3125 4 Z M 41 6.875 L 42.78125 13 L 39.21875 13 Z"/></svg>