<svg fill="#000000" xmlns="http://www.w3.org/2000/svg"  viewBox="0 0 50 50" width="50px" height="50px"><path fill="#777777" d="M 31.46875 3.25 C 31.132813 3.207031 30.785156 3.347656 30.5625 3.625 L 19.1875 17.78125 L 8.53125 7.125 C 8.296875 6.863281 7.941406 6.746094 7.59375 6.8125 C 7.226563 6.890625 6.933594 7.164063 6.832031 7.527344 C 6.734375 7.890625 6.847656 8.277344 7.125 8.53125 L 41.46875 42.875 C 41.710938 43.171875 42.097656 43.308594 42.472656 43.222656 C 42.84375 43.136719 43.136719 42.84375 43.222656 42.472656 C 43.308594 42.097656 43.171875 41.710938 42.875 41.46875 L 32.0625 30.65625 L 38.5 22.625 C 38.738281 22.324219 38.789063 21.910156 38.625 21.5625 C 38.460938 21.214844 38.105469 21 37.71875 21 L 27.59375 21 L 32.28125 4.53125 C 32.410156 4.074219 32.203125 3.59375 31.78125 3.375 C 31.675781 3.320313 31.582031 3.265625 31.46875 3.25 Z M 16.71875 20.875 L 11.5 27.375 C 11.257813 27.675781 11.210938 28.089844 11.375 28.4375 C 11.542969 28.78125 11.898438 29 12.28125 29 L 22.78125 29 L 17.75 45.4375 C 17.609375 45.898438 17.824219 46.398438 18.25 46.625 C 18.398438 46.703125 18.5625 46.75 18.71875 46.75 C 19.015625 46.75 19.304688 46.617188 19.5 46.375 L 29.59375 33.75 Z"/></svg>