<svg fill="#000000" xmlns="http://www.w3.org/2000/svg"  viewBox="0 0 50 50" width="50px" height="50px"><path fill="#777777" d="M 3 7 C 1.300781 7 0 8.300781 0 10 L 0 40 C 0 41.699219 1.300781 43 3 43 L 47 43 C 48.699219 43 50 41.699219 50 40 L 50 10 C 50 8.300781 48.699219 7 47 7 Z M 21.40625 17.90625 C 24.304688 17.90625 26.398438 19.605469 26.5 21.90625 L 24.40625 21.90625 C 24.207031 20.605469 23.105469 19.8125 21.40625 19.8125 C 19.707031 19.8125 18.5 20.605469 18.5 21.90625 C 18.5 22.90625 19.195313 23.507813 21.09375 23.90625 L 22.6875 24.3125 C 25.585938 25.011719 26.8125 26.113281 26.8125 28.3125 C 26.710938 31.011719 24.585938 32.6875 21.1875 32.6875 C 18.085938 32.6875 16.011719 31.09375 15.8125 28.59375 L 18 28.59375 C 18.199219 29.894531 19.507813 30.8125 21.40625 30.8125 C 23.207031 30.8125 24.40625 29.894531 24.40625 28.59375 C 24.40625 27.492188 23.585938 26.90625 21.6875 26.40625 L 20 26 C 17.5 25.398438 16.3125 24.195313 16.3125 22.09375 C 16.3125 19.59375 18.40625 17.90625 21.40625 17.90625 Z M 35.90625 17.90625 C 40.007813 17.90625 42.5 20.710938 42.5 25.3125 C 42.398438 29.914063 39.90625 32.6875 35.90625 32.6875 C 31.804688 32.6875 29.3125 29.8125 29.3125 25.3125 C 29.3125 20.710938 31.804688 17.90625 35.90625 17.90625 Z M 9.6875 18.3125 L 11.90625 18.3125 L 11.90625 32.40625 L 9.6875 32.40625 Z M 35.90625 20 C 33.207031 20 31.59375 22.113281 31.59375 25.3125 C 31.59375 28.613281 33.207031 30.6875 35.90625 30.6875 C 38.605469 30.6875 40.1875 28.613281 40.1875 25.3125 C 40.1875 22.113281 38.507813 20 35.90625 20 Z"/></svg>