<svg fill="#000000" xmlns="http://www.w3.org/2000/svg"  viewBox="0 0 50 50" width="50px" height="50px"><path fill="#777777" d="M 25 0 C 16.449219 0 10 3.011719 10 7 L 10 13 C 10 16.988281 16.449219 20 25 20 C 33.550781 20 40 16.988281 40 13 L 40 7 C 40 3.011719 33.550781 0 25 0 Z M 25 5.4375 C 30.574219 5.4375 34 7.347656 34 8.71875 C 34 10.089844 30.574219 12 25 12 C 19.425781 12 16 10.089844 16 8.71875 C 16 7.347656 19.425781 5.4375 25 5.4375 Z M 10 15 L 10 19 C 10 22.988281 16.449219 26 25 26 C 33.550781 26 40 22.988281 40 19 L 40 15 C 40 18.988281 33.550781 22 25 22 C 16.449219 22 10 18.988281 10 15 Z M 10 21 L 10 35 C 10 38.988281 16.449219 42 25 42 C 33.550781 42 40 38.988281 40 35 L 40 21 C 40 24.988281 33.550781 28 25 28 C 16.449219 28 10 24.988281 10 21 Z M 25 31 C 25.550781 31 26 31.449219 26 32 L 26 34 C 26 34.550781 25.550781 35 25 35 C 24.449219 35 24 34.550781 24 34 L 24 32 C 24 31.449219 24.449219 31 25 31 Z M 13 41.125 L 13 44.28125 C 13 47.539063 18.160156 50 25 50 C 31.839844 50 37 47.539063 37 44.28125 L 37 41.125 C 37 41.125 33.527344 44 25 44 C 16.472656 44 13 41.125 13 41.125 Z"/></svg>