<svg fill="#000000" xmlns="http://www.w3.org/2000/svg"  viewBox="0 0 50 50" width="50px" height="50px"><path fill="#777777" d="M 24.375 1 C 22.578125 1 20.699219 2.421875 19.9375 4.375 L 19.3125 6 L 14 6 L 14 5 C 14 4.445313 13.554688 4 13 4 L 6 4 C 5.445313 4 5 4.445313 5 5 L 5 6.28125 C 2.058594 7.148438 0 9.863281 0 13 L 0 41 C 0 44.859375 3.140625 48 7 48 L 43 48 C 46.859375 48 50 44.859375 50 41 L 50 13 C 50 9.140625 46.859375 6 43 6 L 40.6875 6 L 40.0625 4.375 C 39.300781 2.421875 37.421875 1 35.625 1 Z M 30 10 C 37.167969 10 43 15.832031 43 23 C 43 30.167969 37.167969 36 30 36 C 22.832031 36 17 30.167969 17 23 C 17 15.832031 22.832031 10 30 10 Z M 7 11 C 8.105469 11 9 11.894531 9 13 C 9 14.105469 8.105469 15 7 15 C 5.894531 15 5 14.105469 5 13 C 5 11.894531 5.894531 11 7 11 Z M 30 12 C 23.933594 12 19 16.933594 19 23 C 19 29.066406 23.933594 34 30 34 C 36.066406 34 41 29.066406 41 23 C 41 16.933594 36.066406 12 30 12 Z"/></svg>