<?xml version="1.0"?><svg fill="#000000" xmlns="http://www.w3.org/2000/svg"  viewBox="0 0 50 50" width="50px" height="50px"><path fill="#777777" d="M 23 2 L 23 6.0859375 C 12.349175 7.0969711 3.9882812 16.088949 3.9882812 27 C 3.9882812 38.586 13.414 48.011719 25 48.011719 C 36.586 48.011719 46.011719 38.586 46.011719 27 C 46.011719 16.088949 37.650825 7.0969711 27 6.0859375 L 27 2 L 23 2 z M 42.042969 3 L 39.214844 5.828125 L 40.505859 7.1191406 L 39 8.6269531 L 40.658203 10.285156 L 42.164062 8.7773438 L 43.457031 10.070312 L 46.285156 7.2421875 L 42.042969 3 z M 25 11.988281 C 25.559 11.988281 26.011719 12.441 26.011719 13 L 26.011719 24.1875 C 27.167719 24.6045 28 25.7 28 27 C 28 28.3 27.167719 29.3955 26.011719 29.8125 L 26.011719 32 C 26.011719 32.559 25.559 33.011719 25 33.011719 C 24.441 33.011719 23.988281 32.559 23.988281 32 L 23.988281 29.8125 C 22.832281 29.3955 22 28.3 22 27 C 22 25.7 22.832281 24.6045 23.988281 24.1875 L 23.988281 13 C 23.988281 12.441 24.441 11.988281 25 11.988281 z"/></svg>