<svg fill="#000000" xmlns="http://www.w3.org/2000/svg"  viewBox="0 0 50 50" width="50px" height="50px"><path fill="#777777" d="M 4 10 C 3.449219 10 3 10.449219 3 11 L 3 15 C 3 15.550781 3.449219 16 4 16 L 10 16 C 10.550781 16 11 15.550781 11 15 L 11 11 C 11 10.449219 10.550781 10 10 10 Z M 16 10 C 15.449219 10 15 10.449219 15 11 L 15 15 C 15 15.550781 15.449219 16 16 16 L 22 16 C 22.550781 16 23 15.550781 23 15 L 23 11 C 23 10.449219 22.550781 10 22 10 Z M 28 10 C 27.445313 10 27 10.449219 27 11 L 27 15 C 27 15.550781 27.445313 16 28 16 L 34 16 C 34.554688 16 35 15.550781 35 15 L 35 11 C 35 10.449219 34.554688 10 34 10 Z M 40 10 C 39.445313 10 39 10.449219 39 11 L 39 15 C 39 15.550781 39.445313 16 40 16 L 46 16 C 46.554688 16 47 15.550781 47 15 L 47 11 C 47 10.449219 46.554688 10 46 10 Z M 4 18 C 3.449219 18 3 18.449219 3 19 L 3 23 C 3 23.550781 3.449219 24 4 24 L 10 24 C 10.550781 24 11 23.550781 11 23 L 11 19 C 11 18.449219 10.550781 18 10 18 Z M 16 18 C 15.449219 18 15 18.449219 15 19 L 15 23 C 15 23.550781 15.449219 24 16 24 L 22 24 C 22.550781 24 23 23.550781 23 23 L 23 19 C 23 18.449219 22.550781 18 22 18 Z M 28 18 C 27.445313 18 27 18.449219 27 19 L 27 23 C 27 23.550781 27.445313 24 28 24 L 34 24 C 34.554688 24 35 23.550781 35 23 L 35 19 C 35 18.449219 34.554688 18 34 18 Z M 40 18 C 39.445313 18 39 18.449219 39 19 L 39 23 C 39 23.550781 39.445313 24 40 24 L 46 24 C 46.554688 24 47 23.550781 47 23 L 47 19 C 47 18.449219 46.554688 18 46 18 Z M 4 26 C 3.449219 26 3 26.445313 3 27 L 3 31 C 3 31.554688 3.449219 32 4 32 L 10 32 C 10.550781 32 11 31.554688 11 31 L 11 27 C 11 26.445313 10.550781 26 10 26 Z M 16 26 C 15.449219 26 15 26.445313 15 27 L 15 31 C 15 31.554688 15.449219 32 16 32 L 22 32 C 22.550781 32 23 31.554688 23 31 L 23 27 C 23 26.445313 22.550781 26 22 26 Z M 28 26 C 27.445313 26 27 26.445313 27 27 L 27 31 C 27 31.554688 27.445313 32 28 32 L 34 32 C 34.554688 32 35 31.554688 35 31 L 35 27 C 35 26.445313 34.554688 26 34 26 Z M 40 26 C 39.445313 26 39 26.445313 39 27 L 39 31 C 39 31.554688 39.445313 32 40 32 L 46 32 C 46.554688 32 47 31.554688 47 31 L 47 27 C 47 26.445313 46.554688 26 46 26 Z M 4 34 C 3.449219 34 3 34.445313 3 35 L 3 39 C 3 39.554688 3.449219 40 4 40 L 10 40 C 10.550781 40 11 39.554688 11 39 L 11 35 C 11 34.445313 10.550781 34 10 34 Z M 16 34 C 15.449219 34 15 34.445313 15 35 L 15 39 C 15 39.554688 15.449219 40 16 40 L 22 40 C 22.550781 40 23 39.554688 23 39 L 23 35 C 23 34.445313 22.550781 34 22 34 Z M 28 34 C 27.445313 34 27 34.445313 27 35 L 27 39 C 27 39.554688 27.445313 40 28 40 L 34 40 C 34.554688 40 35 39.554688 35 39 L 35 35 C 35 34.445313 34.554688 34 34 34 Z M 40 34 C 39.445313 34 39 34.445313 39 35 L 39 39 C 39 39.554688 39.445313 40 40 40 L 46 40 C 46.554688 40 47 39.554688 47 39 L 47 35 C 47 34.445313 46.554688 34 46 34 Z"/></svg>